# AST/ASF file generated using VICON BodyLanguage
# -----------------------------------------------
:version 1.10
:name VICON
:units
  mass 1.0
  length 0.45
  angle deg
:documentation
   .ast/.asf automatically generated from VICON data using
   VICON BodyBuilder and BodyLanguage model FoxedUp or BRILLIANT.MOD
:root
   order TX TY TZ RX RY RZ
   axis XYZ
   position 0 0 0  
   orientation 0 0 0 
:bonedata
  begin
     id 1 
     name lhipjoint
     direction 0.584852 -0.759097 0.285867 
     length 2.43633 
     axis 0 0 0  XYZ
  end
  begin
     id 2 
     name lfemur
     direction 0.34202 -0.939693 0  
     length 7.14704  
     axis 0 0 20  XYZ
    dof rx ry rz
    limits (-160.0 20.0)
           (-70.0 70.0)
           (-60.0 70.0)
  end
  begin
     id 3 
     name ltibia
     direction 0.342022 -0.939692 0   
     length 7.68483   
     axis 0 0 20   XYZ
    dof rx
    limits (-10.0 170.0)
  end
  begin
     id 4 
     name lfoot
     direction 0.0999605 -0.274639 0.956337   
     length 2.40452   
     axis -90 7.62852e-016 20   XYZ
    dof rx rz
    limits (-45.0 90.0)
           (-70.0 20.0)
  end
  begin
     id 5 
     name ltoes
     direction 1.53468e-011 -4.21881e-011 1   
     length 1.19837   
     axis -90 7.62852e-016 20   XYZ
    dof rx
    limits (-90.0 20.0)
  end
  begin
     id 6 
     name rhipjoint
     direction -0.569886 -0.769002 0.289597   
     length 2.40495  
     axis 0 0 0  XYZ 
  end
  begin
     id 7 
     name rfemur
     direction -0.34202 -0.939693 0   
     length 7.45086   
     axis 0 0 -20   XYZ
    dof rx ry rz
    limits (-160.0 20.0)
           (-70.0 70.0)
           (-70.0 60.0)
  end
  begin
     id 8 
     name rtibia
     direction -0.34202 -0.939693 0   
     length 7.76831   
     axis 0 0 -20   XYZ
    dof rx
    limits (-10.0 170.0)
 end
 begin
     id 9 
     name rfoot
     direction -0.0798572 -0.219406 0.97236   
     length 2.35911  
     axis -90 -7.62852e-016 -20   XYZ
    dof rx rz
    limits (-45.0 90.0)
           (-20.0 70.0)
  end
  begin
     id 10 
     name rtoes
     direction -1.53469e-011 -4.21728e-011 1   
     length 1.18261   
     axis -90 -7.62852e-016 -20   XYZ
    dof rx
    limits (-90.0 20.0)
  end
  begin
     id 11 
     name lowerback
     direction 0.0242088 0.999437 0.0232389   
     length 2.1561   
     axis 0 0 0   XYZ
    dof rx ry rz
    limits (-20.0 45.0)
           (-30.0 30.0)
           (-30.0 30.0)
  end
  begin
     id 12 
     name upperback
     direction -0.0356893 0.999013 -0.0264323   
     length 2.14431   
     axis 0 0 0   XYZ
    dof rx ry rz
    limits (-20.0 45.0)
           (-30.0 30.0)
           (-30.0 30.0)
  end
  begin
     id 13 
     name thorax
     direction -0.0472163 0.998194 -0.0371284   
     length 2.16169   
     axis 0 0 0   XYZ
    dof rx ry rz
    limits (-20.0 45.0)
           (-30.0 30.0)
           (-30.0 30.0)
  end
  begin
     id 14 
     name lowerneck
     direction 0.00863244 0.999921 0.00911972   
     length 1.58651   
     axis 0 0 0   XYZ
    dof rx ry rz
    limits (-20.0 45.0)
           (-30.0 30.0)
           (-30.0 30.0)
  end
  begin
     id 15 
     name upperneck
     direction 0.149523 0.979068 -0.138086   
     length 1.57486   
     axis 0 0 0   XYZ
    dof rx ry rz
    limits (-20.0 45.0)
           (-30.0 30.0)
           (-30.0 30.0)
  end
  begin
     id 16
     name head
     direction 0.0445219 0.997708 -0.0509576  
     length 1.6019  
     axis 0 0 0   XYZ
    dof rx ry rz
    limits (-20.0 45.0)
           (-30.0 30.0)
           (-30.0 30.0)
  end
  begin
     id 17 
     name lclavicle
     direction 0.911271 0.381667 -0.154644  
     length 3.80848  
     axis 0 0 0   XYZ
    dof ry rz
    limits (-20.0 10.0)
           (0.0 20.0)
  end
  begin
     id 18 
     name lhumerus
     direction 1 -4.49003e-011 2.1308e-027   
     length 5.19069   
     axis 180 -30 -90   XYZ
    dof rx ry rz
    limits (-60.0 90.0)
           (-90.0 90.0)
           (-90.0 90.0)
  end
  begin
     id 19
     name lradius
     direction 1 -4.48914e-011 4.01554e-027   
     length 3.30016   
     axis 180 -30 -90   XYZ
    dof rx
    limits (-10.0 170.0)
  end
  begin
     id 20
     name lwrist
     direction 1 -4.49003e-011 1.1934e-026   
     length 1.65008   
     axis -8.46377e-015 90 90   XYZ
    dof ry
    limits (-180.0 0.0)
 end
  begin
     id 21 
     name lhand
     direction 1 -4.49034e-011 2.38659e-026   
     length 0.707698   
     axis -1.52313e-014 90 90   XYZ
    dof rx rz
    limits (-90.0 90.0)
           (-45.0 45.0)
  end
  begin
     id 22 
     name lfingers
     direction 1 -4.48691e-011 4.77775e-026   
     length 0.570564   
     axis -3.04623e-014 90 90   XYZ
    dof rx
    limits (0.0 90.0)
  end
  begin
     id 23
     name lthumb
     direction 0.707107 -6.34832e-011 0.707107   
     length 0.819219   
     axis -90 45 -1.62303e-014   XYZ
    dof rx rz
    limits (-45.0 45.0)
           (-45.0 45.0)
  end
  begin
     id 24 
     name rclavicle
     direction -0.815579 0.573708 -0.0754329   
     length 3.54371  
     axis 0 0 0   XYZ 
    dof ry rz
    limits (-10.0 20.0)
           (-20.0 0.0)
  end
  begin
     id 25 
     name rhumerus
     direction -1 -4.48956e-011 3.05351e-028  
     length 5.23924   
     axis 180 30 90   XYZ
    dof rx ry rz
    limits (-90.0 60.0)
           (-90.0 90.0)
           (-90.0 90.0)
  end
  begin
     id 26 
     name rradius
     direction -1 -4.49013e-011 3.53849e-027   
     length 3.32953   
     axis 180 30 90   XYZ
    dof rx
    limits (-10.0 170.0)
  end
  begin
     id 27 
     name rwrist
     direction -1 -4.48901e-011 1.19374e-026   
     length 1.66477   
     axis -8.46377e-015 -90 -90   XYZ
    dof ry
    limits (-180.0 0.0)
  end
  begin
     id 28
     name rhand
     direction -1 -4.48877e-011 2.38764e-026   
     length 0.607414   
     axis -1.52313e-014 -90 -90   XYZ
    dof rx rz
    limits (-90.0 90.0)
           (-45.0 45.0)
  end
  begin
     id 29
     name rfingers
     direction -1 -4.48882e-011 4.77521e-026   
     length 0.489712   
     axis -3.04623e-014 -90 -90   XYZ
    dof rx
    limits (0.0 90.0)
  end
  begin
     id 30
     name rthumb
     direction -0.707107 -6.34974e-011 0.707107   
     length 0.703132   
     axis -90 -45 1.62303e-014   XYZ
    dof rx rz
    limits (-45.0 45.0)
           (-45.0 45.0)
  end
:hierarchy
  begin
    root lhipjoint rhipjoint lowerback
    lhipjoint lfemur
    lfemur ltibia
    ltibia lfoot
    lfoot ltoes
    rhipjoint rfemur
    rfemur rtibia
    rtibia rfoot
    rfoot rtoes
    lowerback upperback
    upperback thorax
    thorax lowerneck lclavicle rclavicle
    lowerneck upperneck
    upperneck head
    lclavicle lhumerus
    lhumerus lradius
    lradius lwrist
    lwrist lhand lthumb
    lhand lfingers
    rclavicle rhumerus
    rhumerus rradius
    rradius rwrist
    rwrist rhand rthumb
    rhand rfingers
  end

#!OML:ASF E:\VariousWalksJay\Project 1\Capture day 1\Session 1\Actor2.ASF
:FULLY-SPECIFIED
:DEGREES
180
root 11.2651 17.0598 4.95899 19.3135 -68.8845 -15.3347
lowerback -1.66973 -0.648394 5.94231
upperback 5.04407 -1.19611 -0.417971
thorax 6.07841 -0.318046 -3.85241
lowerneck -9.97832 -4.6148 -6.3624
upperneck 12.3411 -7.28047 12.8774
head 6.09139 -3.00081 4.52181
rclavicle -3.33958e-014 6.36111e-015
rhumerus -79.0558 26.8548 -138.147
rradius 69.5095
rwrist 6.90872
rhand -9.16828 7.98048
rfingers 7.12502
rthumb 16.7844 -21.314
lclavicle -3.33958e-014 6.36111e-015
lhumerus -85.7583 -35.2429 144.544
lradius 69.6344
lwrist 3.48003
lhand 0.915929 8.49166
lfingers 7.12502
lthumb 26.4674 36.6634
rfemur -38.0753 1.53182 26.237
rtibia 66.9979
rfoot -15.619 -11.4515
rtoes -22.5129
lfemur -19.9283 2.40109 -17.0075
ltibia 38.0512
lfoot -22.7978 -8.50006
ltoes 6.53489
181
root 11.3088 17.0706 4.97316 18.8228 -69.3257 -14.6925
lowerback -1.38103 -0.700616 5.75099
upperback 5.17644 -1.24199 -0.507392
thorax 6.048 -0.347811 -3.83755
lowerneck -9.82205 -4.52446 -6.28524
upperneck 12.2705 -7.13395 12.6892
head 6.01657 -2.94569 4.4638
rclavicle -2.44505e-014 -3.18055e-015
rhumerus -78.7925 26.9956 -138.045
rradius 69.4305
rwrist 7.38103
rhand -9.35656 7.84369
rfingers 7.12502
rthumb 16.6032 -21.4661
lclavicle -2.44505e-014 -3.18055e-015
lhumerus -85.6485 -35.3951 144.389
lradius 69.6496
lwrist 3.63698
lhand 1.01555 8.10123
lfingers 7.12502
lthumb 26.5627 36.2586
rfemur -40.3407 1.40894 26.1628
rtibia 69.9327
rfoot -15.3803 -10.2783
rtoes -23.4155
lfemur -19.907 2.87871 -17.4991
ltibia 37.6215
lfoot -22.4976 -8.76254
ltoes 7.05442
182
root 11.3516 17.0838 4.98697 18.6381 -69.6632 -14.3958
lowerback -1.08187 -0.771493 5.72238
upperback 5.31781 -1.32385 -0.550746
thorax 6.01708 -0.388977 -3.86754
lowerneck -9.66552 -4.43338 -6.20055
upperneck 12.2015 -6.98563 12.4857
head 5.94175 -2.89001 4.39969
rclavicle 1.51076e-014 -3.18055e-015
rhumerus -78.5359 27.1432 -137.973
rradius 69.345
rwrist 7.94196
rhand -9.64743 7.50182
rfingers 7.12502
rthumb 16.3231 -21.8312
lclavicle 1.51076e-014 -3.18055e-015
lhumerus -85.5491 -35.5399 144.252
lradius 69.6566
lwrist 3.77693
lhand 1.0148 7.76524
lfingers 7.12502
lthumb 26.562 35.9227
rfemur -42.5759 1.225 26.3564
rtibia 72.7711
rfoot -15.2902 -9.10689
rtoes -24.3587
lfemur -19.8873 3.34075 -17.8141
ltibia 37.2066
lfoot -22.1915 -9.06059
ltoes 7.49144
183
root 11.3934 17.0997 5.00038 18.6803 -69.9201 -14.3548
lowerback -0.77331 -0.857834 5.81046
upperback 5.4653 -1.43342 -0.558189
thorax 5.98393 -0.439367 -3.9263
lowerneck -9.51114 -4.34418 -6.11331
upperneck 12.1407 -6.83895 12.2668
head 5.86993 -2.8354 4.32994
rclavicle -3.81667e-014 1.35174e-014
rhumerus -78.2929 27.2959 -137.921
rradius 69.2626
rwrist 8.56693
rhand -10.0061 6.9936
rfingers 7.12502
rthumb 15.9778 -22.3674
lclavicle -3.81667e-014 1.35174e-014
lhumerus -85.4672 -35.6838 144.141
lradius 69.6572
lwrist 3.89776
lhand 0.950759 7.44416
lfingers 7.12502
lthumb 26.5007 35.6109
rfemur -44.7788 1.01102 26.7635
rtibia 75.483
rfoot -15.287 -7.97603
rtoes -25.2543
lfemur -19.8678 3.78464 -18.0005
ltibia 36.8057
lfoot -21.8994 -9.3676
ltoes 7.78341
184
root 11.4343 17.118 5.01323 18.9433 -70.0956 -14.5546
lowerback -0.45555 -0.963647 6.00084
upperback 5.61346 -1.57418 -0.529372
thorax 5.94227 -0.501612 -4.00506
lowerneck -9.36845 -4.25432 -6.01519
upperneck 12.0985 -6.69089 12.0222
head 5.80516 -2.7801 4.25009
rclavicle -1.17283e-014 -5.1684e-015
rhumerus -78.0697 27.4607 -137.881
rradius 69.1777
rwrist 9.21685
rhand -10.3656 6.46836
rfingers 7.12502
rthumb 15.6316 -22.9201
lclavicle -1.17283e-014 -5.1684e-015
lhumerus -85.3834 -35.8192 144.042
lradius 69.6413
lwrist 3.98871
lhand 0.815961 7.20357
lfingers 7.12502
lthumb 26.3717 35.3897
rfemur -46.9521 0.783883 27.3657
rtibia 78.0457
rfoot -15.345 -6.89719
rtoes -26.1649
lfemur -19.8585 4.21736 -18.0682
ltibia 36.4211
lfoot -21.637 -9.67671
ltoes 7.89289
185
root 11.4742 17.1381 5.02541 19.4026 -70.2121 -14.9638
lowerback -0.134028 -1.07908 6.2773
upperback 5.76104 -1.73136 -0.470435
thorax 5.89518 -0.568891 -4.1001
lowerneck -9.239 -4.16779 -5.9161
upperneck 12.0737 -6.54626 11.7591
head 5.74837 -2.72642 4.16367
rclavicle 2.18663e-015 1.39149e-014
rhumerus -77.8318 27.6103 -137.814
rradius 69.0705
rwrist 9.87682
rhand -10.6713 6.04355
rfingers 7.12502
rthumb 15.3371 -23.3677
lclavicle 2.18663e-015 1.39149e-014
lhumerus -85.3048 -35.9512 143.96
lradius 69.6086
lwrist 4.03696
lhand 0.628678 7.02309
lfingers 7.12502
lthumb 26.1924 35.2359
rfemur -49.0983 0.577927 28.1283
rtibia 80.4547
rfoot -15.4636 -5.83495
rtoes -27.1185
lfemur -19.854 4.65815 -18.0401
ltibia 36.0409
lfoot -21.408 -9.97863
ltoes 7.76053
186
root 11.5129 17.1596 5.03681 20.011 -70.2789 -15.5245
lowerback 0.187375 -1.2036 6.61309
upperback 5.90282 -1.90221 -0.38587
thorax 5.83958 -0.641216 -4.20066
lowerneck -9.1103 -4.07616 -5.81739
upperneck 12.0501 -6.392 11.4775
head 5.69126 -2.6689 4.07225
rclavicle 3.04141e-014 -1.59028e-015
rhumerus -77.6047 27.7465 -137.722
rradius 68.9598
rwrist 10.5513
rhand -10.9644 5.80806
rfingers 7.12502
rthumb 15.0548 -23.6246
lclavicle 3.04141e-014 -1.59028e-015
lhumerus -85.2257 -36.0715 143.888
lradius 69.5653
lwrist 4.03644
lhand 0.409108 6.89157
lfingers 7.12502
lthumb 25.9822 35.1354
rfemur -51.2274 0.409291 29.0123
rtibia 82.7142
rfoot -15.6302 -4.76512
rtoes -28.1118
lfemur -19.855 5.11056 -17.9398
ltibia 35.6529
lfoot -21.1972 -10.2968
ltoes 7.47867
187
root 11.5502 17.1818 5.04751 20.6793 -70.3186 -16.1415
lowerback 0.506514 -1.33441 6.96678
upperback 6.03716 -2.08076 -0.284064
thorax 5.77585 -0.717492 -4.2918
lowerneck -8.98151 -3.97703 -5.7185
upperneck 12.0235 -6.22373 11.1724
head 5.63187 -2.60577 3.97442
rclavicle 7.55382e-015 1.07344e-014
rhumerus -77.3609 27.8514 -137.549
rradius 68.8356
rwrist 11.1419
rhand -10.991 6.0186
rfingers 7.12502
rthumb 15.0292 -23.4159
lclavicle 7.55382e-015 1.07344e-014
lhumerus -85.1435 -36.1723 143.806
lradius 69.5315
lwrist 4.02303
lhand 0.201199 6.82751
lfingers 7.12502
lthumb 25.7831 35.1004
rfemur -53.3429 0.293923 29.9608
rtibia 84.839
rfoot -15.8334 -3.66333
rtoes -29.1391
lfemur -19.8514 5.58282 -17.8075
ltibia 35.241
lfoot -21.0009 -10.6353
ltoes 7.03527
188
root 11.5858 17.2035 5.05827 21.2181 -70.3848 -16.616
lowerback 0.822209 -1.45579 7.26783
upperback 6.16525 -2.24255 -0.193128
thorax 5.70942 -0.788054 -4.36269
lowerneck -8.85097 -3.87557 -5.61378
upperneck 11.9854 -6.04956 10.8487
head 5.5682 -2.54063 3.87014
rclavicle 8.54774e-015 -1.31198e-014
rhumerus -77.0745 27.8971 -137.271
rradius 68.6992
rwrist 11.628
rhand -10.7462 6.71515
rfingers 7.12502
rthumb 15.265 -22.7016
lclavicle 8.54774e-015 -1.31198e-014
lhumerus -85.1031 -36.2686 143.741
lradius 69.5311
lwrist 3.97336
lhand -0.0158229 6.80905
lfingers 7.12502
lthumb 25.5752 35.112
rfemur -55.4543 0.245219 30.8687
rtibia 86.8591
rfoot -16.0693 -2.50005
rtoes -30.1445
lfemur -19.8225 6.0949 -17.7412
ltibia 34.7905
lfoot -20.7954 -10.9991
ltoes 6.55834
